{
    "asset" : {
        "generator" : "Khronos glTF Blender I/O v1.7.33",
        "version" : "2.0"
    },
    "scene" : 0,
    "scenes" : [
        {
            "name" : "Scene",
            "nodes" : [
                0,
                1
            ]
        }
    ],
    "nodes" : [
        {
            "mesh" : 0,
            "name" : "Circle",
            "scale" : [
                0.12863051891326904,
                0.12863051891326904,
                0.12863051891326904
            ]
        },
        {
            "mesh" : 1,
            "name" : "Circle.001",
            "scale" : [
                0.12863051891326904,
                0.12863051891326904,
                0.12863051891326904
            ]
        }
    ],
    "materials" : [
        {
            "doubleSided" : true,
            "name" : "Material.001",
            "pbrMetallicRoughness" : {}
        },
        {
            "doubleSided" : true,
            "name" : "Material",
            "pbrMetallicRoughness" : {}
        },
        {
            "doubleSided" : true,
            "name" : "Material.002",
            "pbrMetallicRoughness" : {}
        },
        {
            "doubleSided" : true,
            "name" : "Material.003",
            "pbrMetallicRoughness" : {}
        },
        {
            "doubleSided" : true,
            "name" : "Material.004",
            "pbrMetallicRoughness" : {}
        },
        {
            "doubleSided" : true,
            "name" : "Material.006",
            "pbrMetallicRoughness" : {}
        }
    ],
    "meshes" : [
        {
            "name" : "Circle",
            "primitives" : [
                {
                    "attributes" : {
                        "POSITION" : 0,
                        "NORMAL" : 1,
                        "TEXCOORD_0" : 2
                    },
                    "indices" : 3,
                    "material" : 0
                },
                {
                    "attributes" : {
                        "POSITION" : 4,
                        "NORMAL" : 5,
                        "TEXCOORD_0" : 6
                    },
                    "indices" : 7,
                    "material" : 1
                },
                {
                    "attributes" : {
                        "POSITION" : 8,
                        "NORMAL" : 9,
                        "TEXCOORD_0" : 10
                    },
                    "indices" : 11,
                    "material" : 2
                },
                {
                    "attributes" : {
                        "POSITION" : 12,
                        "NORMAL" : 13,
                        "TEXCOORD_0" : 14
                    },
                    "indices" : 15,
                    "material" : 3
                },
                {
                    "attributes" : {
                        "POSITION" : 16,
                        "NORMAL" : 17,
                        "TEXCOORD_0" : 18
                    },
                    "indices" : 19,
                    "material" : 4
                }
            ]
        },
        {
            "name" : "Circle.001",
            "primitives" : [
                {
                    "attributes" : {
                        "POSITION" : 20,
                        "NORMAL" : 21,
                        "TEXCOORD_0" : 22
                    },
                    "indices" : 23,
                    "material" : 5
                },
                {
                    "attributes" : {
                        "POSITION" : 24,
                        "NORMAL" : 25,
                        "TEXCOORD_0" : 26
                    },
                    "indices" : 27,
                    "material" : 1
                }
            ]
        }
    ],
    "accessors" : [
        {
            "bufferView" : 0,
            "componentType" : 5126,
            "count" : 310,
            "max" : [
                0.9390246272087097,
                1.611581802368164,
                0.987349271774292
            ],
            "min" : [
                -0.9390246272087097,
                0.27932676672935486,
                -0.9873486757278442
            ],
            "type" : "VEC3"
        },
        {
            "bufferView" : 1,
            "componentType" : 5126,
            "count" : 310,
            "type" : "VEC3"
        },
        {
            "bufferView" : 2,
            "componentType" : 5126,
            "count" : 310,
            "type" : "VEC2"
        },
        {
            "bufferView" : 3,
            "componentType" : 5123,
            "count" : 450,
            "type" : "SCALAR"
        },
        {
            "bufferView" : 4,
            "componentType" : 5126,
            "count" : 76,
            "max" : [
                1.282090187072754,
                0.29658108949661255,
                1.282090187072754
            ],
            "min" : [
                -1.282090187072754,
                -0.29658108949661255,
                -1.282090187072754
            ],
            "type" : "VEC3"
        },
        {
            "bufferView" : 5,
            "componentType" : 5126,
            "count" : 76,
            "type" : "VEC3"
        },
        {
            "bufferView" : 6,
            "componentType" : 5126,
            "count" : 76,
            "type" : "VEC2"
        },
        {
            "bufferView" : 7,
            "componentType" : 5123,
            "count" : 114,
            "type" : "SCALAR"
        },
        {
            "bufferView" : 8,
            "componentType" : 5126,
            "count" : 240,
            "max" : [
                0.20821866393089294,
                1.822934865951538,
                0.35651350021362305
            ],
            "min" : [
                -0.20821866393089294,
                1.5311732292175293,
                -0.059923842549324036
            ],
            "type" : "VEC3"
        },
        {
            "bufferView" : 9,
            "componentType" : 5126,
            "count" : 240,
            "type" : "VEC3"
        },
        {
            "bufferView" : 10,
            "componentType" : 5126,
            "count" : 240,
            "type" : "VEC2"
        },
        {
            "bufferView" : 11,
            "componentType" : 5123,
            "count" : 336,
            "type" : "SCALAR"
        },
        {
            "bufferView" : 12,
            "componentType" : 5126,
            "count" : 10,
            "max" : [
                0.17793814837932587,
                1.852919101715088,
                0.20216411352157593
            ],
            "min" : [
                -3.507753376652545e-08,
                1.8193455934524536,
                0.10023394227027893
            ],
            "type" : "VEC3"
        },
        {
            "bufferView" : 13,
            "componentType" : 5126,
            "count" : 10,
            "type" : "VEC3"
        },
        {
            "bufferView" : 14,
            "componentType" : 5126,
            "count" : 10,
            "type" : "VEC2"
        },
        {
            "bufferView" : 15,
            "componentType" : 5123,
            "count" : 12,
            "type" : "SCALAR"
        },
        {
            "bufferView" : 16,
            "componentType" : 5126,
            "count" : 760,
            "max" : [
                0.5721529722213745,
                2.603347063064575,
                0.10932311415672302
            ],
            "min" : [
                -0.5721529722213745,
                1.2442747354507446,
                -0.42845118045806885
            ],
            "type" : "VEC3"
        },
        {
            "bufferView" : 17,
            "componentType" : 5126,
            "count" : 760,
            "type" : "VEC3"
        },
        {
            "bufferView" : 18,
            "componentType" : 5126,
            "count" : 760,
            "type" : "VEC2"
        },
        {
            "bufferView" : 19,
            "componentType" : 5123,
            "count" : 1080,
            "type" : "SCALAR"
        },
        {
            "bufferView" : 20,
            "componentType" : 5126,
            "count" : 64,
            "max" : [
                0.9999998807907104,
                4.346221923828125,
                -0.5309805870056152
            ],
            "min" : [
                -1,
                2.346221923828125,
                -0.6073303818702698
            ],
            "type" : "VEC3"
        },
        {
            "bufferView" : 21,
            "componentType" : 5126,
            "count" : 64,
            "type" : "VEC3"
        },
        {
            "bufferView" : 22,
            "componentType" : 5126,
            "count" : 64,
            "type" : "VEC2"
        },
        {
            "bufferView" : 23,
            "componentType" : 5123,
            "count" : 180,
            "type" : "SCALAR"
        },
        {
            "bufferView" : 24,
            "componentType" : 5126,
            "count" : 64,
            "max" : [
                0.9999998807907104,
                4.346221923828125,
                -0.5309805870056152
            ],
            "min" : [
                -1,
                2.346221923828125,
                -0.6073303818702698
            ],
            "type" : "VEC3"
        },
        {
            "bufferView" : 25,
            "componentType" : 5126,
            "count" : 64,
            "type" : "VEC3"
        },
        {
            "bufferView" : 26,
            "componentType" : 5126,
            "count" : 64,
            "type" : "VEC2"
        },
        {
            "bufferView" : 27,
            "componentType" : 5123,
            "count" : 192,
            "type" : "SCALAR"
        }
    ],
    "bufferViews" : [
        {
            "buffer" : 0,
            "byteLength" : 3720,
            "byteOffset" : 0
        },
        {
            "buffer" : 0,
            "byteLength" : 3720,
            "byteOffset" : 3720
        },
        {
            "buffer" : 0,
            "byteLength" : 2480,
            "byteOffset" : 7440
        },
        {
            "buffer" : 0,
            "byteLength" : 900,
            "byteOffset" : 9920
        },
        {
            "buffer" : 0,
            "byteLength" : 912,
            "byteOffset" : 10820
        },
        {
            "buffer" : 0,
            "byteLength" : 912,
            "byteOffset" : 11732
        },
        {
            "buffer" : 0,
            "byteLength" : 608,
            "byteOffset" : 12644
        },
        {
            "buffer" : 0,
            "byteLength" : 228,
            "byteOffset" : 13252
        },
        {
            "buffer" : 0,
            "byteLength" : 2880,
            "byteOffset" : 13480
        },
        {
            "buffer" : 0,
            "byteLength" : 2880,
            "byteOffset" : 16360
        },
        {
            "buffer" : 0,
            "byteLength" : 1920,
            "byteOffset" : 19240
        },
        {
            "buffer" : 0,
            "byteLength" : 672,
            "byteOffset" : 21160
        },
        {
            "buffer" : 0,
            "byteLength" : 120,
            "byteOffset" : 21832
        },
        {
            "buffer" : 0,
            "byteLength" : 120,
            "byteOffset" : 21952
        },
        {
            "buffer" : 0,
            "byteLength" : 80,
            "byteOffset" : 22072
        },
        {
            "buffer" : 0,
            "byteLength" : 24,
            "byteOffset" : 22152
        },
        {
            "buffer" : 0,
            "byteLength" : 9120,
            "byteOffset" : 22176
        },
        {
            "buffer" : 0,
            "byteLength" : 9120,
            "byteOffset" : 31296
        },
        {
            "buffer" : 0,
            "byteLength" : 6080,
            "byteOffset" : 40416
        },
        {
            "buffer" : 0,
            "byteLength" : 2160,
            "byteOffset" : 46496
        },
        {
            "buffer" : 0,
            "byteLength" : 768,
            "byteOffset" : 48656
        },
        {
            "buffer" : 0,
            "byteLength" : 768,
            "byteOffset" : 49424
        },
        {
            "buffer" : 0,
            "byteLength" : 512,
            "byteOffset" : 50192
        },
        {
            "buffer" : 0,
            "byteLength" : 360,
            "byteOffset" : 50704
        },
        {
            "buffer" : 0,
            "byteLength" : 768,
            "byteOffset" : 51064
        },
        {
            "buffer" : 0,
            "byteLength" : 768,
            "byteOffset" : 51832
        },
        {
            "buffer" : 0,
            "byteLength" : 512,
            "byteOffset" : 52600
        },
        {
            "buffer" : 0,
            "byteLength" : 384,
            "byteOffset" : 53112
        }
    ],
    "buffers" : [
        {
            "byteLength" : 53496,
            "uri" : "mikan20.bin"
        }
    ]
}
